<svg xmlns="http://www.w3.org/2000/svg" width="1200" height="800" viewBox="0 0 1200 800" role="img"><title>Tactically Idle</title><rect width="1200" height="800" fill="#0e1624"/><g stroke="#f3f7ff" stroke-width="1" opacity=".035"><path d="M0 0v800"/><path d="M40 0v800"/><path d="M80 0v800"/><path d="M120 0v800"/><path d="M160 0v800"/><path d="M200 0v800"/><path d="M240 0v800"/><path d="M280 0v800"/><path d="M320 0v800"/><path d="M360 0v800"/><path d="M400 0v800"/><path d="M440 0v800"/><path d="M480 0v800"/><path d="M520 0v800"/><path d="M560 0v800"/><path d="M600 0v800"/><path d="M640 0v800"/><path d="M680 0v800"/><path d="M720 0v800"/><path d="M760 0v800"/><path d="M800 0v800"/><path d="M840 0v800"/><path d="M880 0v800"/><path d="M920 0v800"/><path d="M960 0v800"/><path d="M1000 0v800"/><path d="M1040 0v800"/><path d="M1080 0v800"/><path d="M1120 0v800"/><path d="M1160 0v800"/><path d="M0 0h1200"/><path d="M0 40h1200"/><path d="M0 80h1200"/><path d="M0 120h1200"/><path d="M0 160h1200"/><path d="M0 200h1200"/><path d="M0 240h1200"/><path d="M0 280h1200"/><path d="M0 320h1200"/><path d="M0 360h1200"/><path d="M0 400h1200"/><path d="M0 440h1200"/><path d="M0 480h1200"/><path d="M0 520h1200"/><path d="M0 560h1200"/><path d="M0 600h1200"/><path d="M0 640h1200"/><path d="M0 680h1200"/><path d="M0 720h1200"/><path d="M0 760h1200"/></g><g fill="none" stroke="#f3f7ff" stroke-width="3" opacity=".065"><path d="M564.0 144.0h480.0v512.0H420.0v-288.0h144.0zM780.0 144.0v272.0h264.0M420.0 536.0h360.0v120.0"/></g><g transform="translate(90,243) scale(2.5)"><g transform="translate(0,0) scale(0.9)"><path d="M19 34V19h16M65 81h16V66" fill="none" stroke="#f3b432" stroke-width="5" stroke-linecap="square"/><path d="M28 28h30v12H49v34H37V40h-9zM65 28h12v46H65z" fill="#f3f7ff"/></g><g fill="#f3f7ff"><path d="M9 1493H1247V1202H802V0H455V1202H9Z" transform="translate(110.000,42) scale(0.0205078125,-0.0205078125)"/><path d="M985 272H443L357 0H9L507 1493H920L1418 0H1069ZM529 549H897L714 1143Z" transform="translate(136.228,42) scale(0.0205078125,-0.0205078125)"/><path d="M1235 82Q1139 27 1035.5 -1.0Q932 -29 820 -29Q484 -29 288.0 179.5Q92 388 92 745Q92 1103 288.0 1311.5Q484 1520 820 1520Q932 1520 1035.5 1492.0Q1139 1464 1235 1409V1100Q1138 1173 1044.5 1207.0Q951 1241 848 1241Q662 1241 556.0 1109.0Q450 977 450 745Q450 514 556.0 382.0Q662 250 848 250Q951 250 1044.5 284.0Q1138 318 1235 391Z" transform="translate(165.922,42) scale(0.0205078125,-0.0205078125)"/><path d="M9 1493H1247V1202H802V0H455V1202H9Z" transform="translate(194.099,42) scale(0.0205078125,-0.0205078125)"/><path d="M169 1493H516V0H169Z" transform="translate(220.327,42) scale(0.0205078125,-0.0205078125)"/><path d="M1235 82Q1139 27 1035.5 -1.0Q932 -29 820 -29Q484 -29 288.0 179.5Q92 388 92 745Q92 1103 288.0 1311.5Q484 1520 820 1520Q932 1520 1035.5 1492.0Q1139 1464 1235 1409V1100Q1138 1173 1044.5 1207.0Q951 1241 848 1241Q662 1241 556.0 1109.0Q450 977 450 745Q450 514 556.0 382.0Q662 250 848 250Q951 250 1044.5 284.0Q1138 318 1235 391Z" transform="translate(234.825,42) scale(0.0205078125,-0.0205078125)"/><path d="M985 272H443L357 0H9L507 1493H920L1418 0H1069ZM529 549H897L714 1143Z" transform="translate(263.002,42) scale(0.0205078125,-0.0205078125)"/><path d="M169 1493H516V291H1124V0H169Z" transform="translate(292.696,42) scale(0.0205078125,-0.0205078125)"/><path d="M169 1493H516V291H1124V0H169Z" transform="translate(317.222,42) scale(0.0205078125,-0.0205078125)"/><path d="M-18 1493H361L667 961L973 1493H1353L841 629V0H494V629Z" transform="translate(341.748,42) scale(0.0205078125,-0.0205078125)"/></g><g fill="#f3f7ff"><path d="M169 1493H516V0H169Z" transform="translate(110.000,88) scale(0.0205078125,-0.0205078125)"/><path d="M516 1202V291H640Q852 291 964.0 408.0Q1076 525 1076 748Q1076 970 964.5 1086.0Q853 1202 640 1202ZM169 1493H535Q841 1493 990.5 1444.5Q1140 1396 1247 1280Q1342 1179 1388.0 1047.0Q1434 915 1434 748Q1434 579 1388.0 446.5Q1342 314 1247 213Q1139 97 988.0 48.5Q837 0 535 0H169Z" transform="translate(130.048,88) scale(0.0205078125,-0.0205078125)"/><path d="M169 1493H516V291H1124V0H169Z" transform="translate(167.425,88) scale(0.0205078125,-0.0205078125)"/><path d="M169 1493H1104V1202H516V924H1069V633H516V291H1124V0H169Z" transform="translate(197.501,88) scale(0.0205078125,-0.0205078125)"/></g></g><path d="M90 564h1020" stroke="#f3b432" stroke-width="2"/><g fill="#aab7ca"><path d="M985 272H443L357 0H9L507 1493H920L1418 0H1069ZM529 549H897L714 1143Z" transform="translate(90.000,615) scale(0.01220703125,-0.01220703125)"/><path d="" transform="translate(109.407,615) scale(0.01220703125,-0.01220703125)"/><path d="M9 1493H1247V1202H802V0H455V1202H9Z" transform="translate(119.232,615) scale(0.01220703125,-0.01220703125)"/><path d="M985 272H443L357 0H9L507 1493H920L1418 0H1069ZM529 549H897L714 1143Z" transform="translate(136.576,615) scale(0.01220703125,-0.01220703125)"/><path d="M1235 82Q1139 27 1035.5 -1.0Q932 -29 820 -29Q484 -29 288.0 179.5Q92 388 92 745Q92 1103 288.0 1311.5Q484 1520 820 1520Q932 1520 1035.5 1492.0Q1139 1464 1235 1409V1100Q1138 1173 1044.5 1207.0Q951 1241 848 1241Q662 1241 556.0 1109.0Q450 977 450 745Q450 514 556.0 382.0Q662 250 848 250Q951 250 1044.5 284.0Q1138 318 1235 391Z" transform="translate(155.983,615) scale(0.01220703125,-0.01220703125)"/><path d="M9 1493H1247V1202H802V0H455V1202H9Z" transform="translate(174.487,615) scale(0.01220703125,-0.01220703125)"/><path d="M169 1493H516V0H169Z" transform="translate(191.832,615) scale(0.01220703125,-0.01220703125)"/><path d="M1235 82Q1139 27 1035.5 -1.0Q932 -29 820 -29Q484 -29 288.0 179.5Q92 388 92 745Q92 1103 288.0 1311.5Q484 1520 820 1520Q932 1520 1035.5 1492.0Q1139 1464 1235 1409V1100Q1138 1173 1044.5 1207.0Q951 1241 848 1241Q662 1241 556.0 1109.0Q450 977 450 745Q450 514 556.0 382.0Q662 250 848 250Q951 250 1044.5 284.0Q1138 318 1235 391Z" transform="translate(202.193,615) scale(0.01220703125,-0.01220703125)"/><path d="M985 272H443L357 0H9L507 1493H920L1418 0H1069ZM529 549H897L714 1143Z" transform="translate(220.697,615) scale(0.01220703125,-0.01220703125)"/><path d="M169 1493H516V291H1124V0H169Z" transform="translate(240.104,615) scale(0.01220703125,-0.01220703125)"/><path d="" transform="translate(256.436,615) scale(0.01220703125,-0.01220703125)"/><path d="M169 1493H610L916 694L1224 1493H1664V0H1336V1092L1027 287H807L498 1092V0H169Z" transform="translate(266.260,615) scale(0.01220703125,-0.01220703125)"/><path d="M985 272H443L357 0H9L507 1493H920L1418 0H1069ZM529 549H897L714 1143Z" transform="translate(290.648,615) scale(0.01220703125,-0.01220703125)"/><path d="M169 1493H556L1045 469V1493H1373V0H986L498 1024V0H169Z" transform="translate(310.055,615) scale(0.01220703125,-0.01220703125)"/><path d="M985 272H443L357 0H9L507 1493H920L1418 0H1069ZM529 549H897L714 1143Z" transform="translate(330.878,615) scale(0.01220703125,-0.01220703125)"/><path d="M1377 111Q1247 41 1107.5 6.0Q968 -29 820 -29Q484 -29 288.0 179.5Q92 388 92 745Q92 1106 291.5 1313.0Q491 1520 839 1520Q973 1520 1096.0 1492.0Q1219 1464 1328 1409V1100Q1215 1171 1104.0 1206.0Q993 1241 881 1241Q674 1241 562.0 1112.5Q450 984 450 745Q450 508 558.0 379.0Q666 250 865 250Q919 250 965.5 257.5Q1012 265 1048 281V571H837V829H1377Z" transform="translate(350.286,615) scale(0.01220703125,-0.01220703125)"/><path d="M169 1493H1104V1202H516V924H1069V633H516V291H1124V0H169Z" transform="translate(370.743,615) scale(0.01220703125,-0.01220703125)"/><path d="M169 1493H610L916 694L1224 1493H1664V0H1336V1092L1027 287H807L498 1092V0H169Z" transform="translate(388.111,615) scale(0.01220703125,-0.01220703125)"/><path d="M169 1493H1104V1202H516V924H1069V633H516V291H1124V0H169Z" transform="translate(412.499,615) scale(0.01220703125,-0.01220703125)"/><path d="M169 1493H556L1045 469V1493H1373V0H986L498 1024V0H169Z" transform="translate(429.868,615) scale(0.01220703125,-0.01220703125)"/><path d="M9 1493H1247V1202H802V0H455V1202H9Z" transform="translate(450.691,615) scale(0.01220703125,-0.01220703125)"/><path d="" transform="translate(468.035,615) scale(0.01220703125,-0.01220703125)"/><path d="M1377 111Q1247 41 1107.5 6.0Q968 -29 820 -29Q484 -29 288.0 179.5Q92 388 92 745Q92 1106 291.5 1313.0Q491 1520 839 1520Q973 1520 1096.0 1492.0Q1219 1464 1328 1409V1100Q1215 1171 1104.0 1206.0Q993 1241 881 1241Q674 1241 562.0 1112.5Q450 984 450 745Q450 508 558.0 379.0Q666 250 865 250Q919 250 965.5 257.5Q1012 265 1048 281V571H837V829H1377Z" transform="translate(477.860,615) scale(0.01220703125,-0.01220703125)"/><path d="M985 272H443L357 0H9L507 1493H920L1418 0H1069ZM529 549H897L714 1143Z" transform="translate(498.317,615) scale(0.01220703125,-0.01220703125)"/><path d="M169 1493H610L916 694L1224 1493H1664V0H1336V1092L1027 287H807L498 1092V0H169Z" transform="translate(517.724,615) scale(0.01220703125,-0.01220703125)"/><path d="M169 1493H1104V1202H516V924H1069V633H516V291H1124V0H169Z" transform="translate(542.112,615) scale(0.01220703125,-0.01220703125)"/></g></svg>